<svg width="24" height="24" viewBox="0 0 24 24" fill="none" xmlns="http://www.w3.org/2000/svg">
<g opacity="0.6">
<path d="M15.8906 11.9941C15.6113 12.3581 15.1818 12.5756 14.7231 12.5854C14.2654 12.5728 13.8374 12.3559 13.5566 11.9941" stroke="#0C0B0A" stroke-linecap="round" stroke-linejoin="round"/>
<path d="M10.4433 11.9941C10.1642 12.3578 9.7352 12.5753 9.27686 12.5854C8.81882 12.573 8.39042 12.356 8.10938 11.9941" stroke="#0C0B0A" stroke-linecap="round" stroke-linejoin="round"/>
<path fill-rule="evenodd" clip-rule="evenodd" d="M12 21.4779C15.7558 21.4759 19.046 18.9617 20.0344 15.3383C21.1541 15.214 22.0013 14.2676 22.0013 13.1409C22.0013 12.0143 21.1541 11.0679 20.0344 10.9435C19.0481 7.31869 15.7567 4.80322 12 4.80322C8.24342 4.80322 4.95203 7.31869 3.9657 10.9435C2.84595 11.0679 1.99878 12.0143 1.99878 13.1409C1.99878 14.2676 2.84595 15.214 3.9657 15.3383C4.95411 18.9617 8.24433 21.4759 12 21.4779Z" stroke="#0C0B0A" stroke-linecap="round" stroke-linejoin="round"/>
<path d="M14.223 16.149C12.9493 17.2601 11.0508 17.2601 9.7771 16.149" stroke="#0C0B0A" stroke-linecap="round" stroke-linejoin="round"/>
<path d="M9.71802 2.52197C10.3232 2.52197 10.9037 2.76239 11.3316 3.19034C11.7595 3.61829 12 4.19871 12 4.80392" stroke="#0C0B0A" stroke-linecap="round" stroke-linejoin="round"/>
<path d="M12 4.80392C12 4.19871 12.2404 3.61829 12.6684 3.19034C13.0963 2.76239 13.6767 2.52197 14.282 2.52197" stroke="#0C0B0A" stroke-linecap="round" stroke-linejoin="round"/>
</g>
</svg>
