<svg width="24" height="24" viewBox="0 0 24 24" fill="none" xmlns="http://www.w3.org/2000/svg">
<g opacity="0.6">
<path d="M9.91018 7.34315H12.0001L13.6287 6.35074C13.8889 6.19224 14.2072 6.16094 14.4932 6.26571C14.7793 6.37049 15.0021 6.59991 15.0983 6.88896L17.4023 13.8008L20.6437 18.1226C21.0529 18.6683 21.1187 19.3983 20.8137 20.0084C20.5087 20.6185 19.8851 21.0038 19.2031 21.0038H15.2714C14.1596 21.0045 13.0978 20.542 12.3412 19.7273L3.79664 10.5305C3.24173 9.93199 2.9545 9.13332 3.00112 8.3185C3.04774 7.50367 3.42419 6.74298 4.04374 6.21168L7.46817 3.27746C7.81198 2.98294 8.29576 2.91547 8.70704 3.10466C9.11833 3.29385 9.38188 3.70512 9.38196 4.15783V7.34315H12.0001" stroke="#0C0B0A" stroke-linecap="round" stroke-linejoin="round"/>
<path d="M2.99622 17.5026H4.99705" stroke="#0C0B0A" stroke-linecap="round" stroke-linejoin="round"/>
<path d="M7.9983 21.0036H2.99622" stroke="#0C0B0A" stroke-linecap="round" stroke-linejoin="round"/>
<path d="M20.5505 18.0027H15.5244C14.6916 18.005 13.8958 17.659 13.3295 17.0483L3.65149 6.62598" stroke="#0C0B0A" stroke-linecap="round" stroke-linejoin="round"/>
<path d="M13.0004 13.0005L16.907 12.3242" stroke="#0C0B0A" stroke-linecap="round" stroke-linejoin="round"/>
<path d="M12 10.4993L16.0657 9.79602" stroke="#0C0B0A" stroke-linecap="round" stroke-linejoin="round"/>
</g>
</svg>
