<svg width="170" height="40" viewBox="0 0 170 40" fill="none" xmlns="http://www.w3.org/2000/svg">
<g opacity="0.4" clip-path="url(#clip0_30_4335)">
<path d="M149.96 10.4829C156.442 10.1758 159.615 16.3137 156.642 21.8281C154.846 25.1585 149.655 25.8067 146.631 23.9316C144.694 22.7302 143.94 21.0765 143.422 18.8794C142.587 18.9127 141.86 18.9244 141.022 18.8789L141.015 19.6738L141.003 24.7556C139.842 24.7258 138.758 24.6855 137.596 24.7229C137.517 22.9577 137.557 20.9192 137.555 19.1346C137.539 16.3324 137.552 13.5301 137.595 10.7282L141.008 10.6955L141.017 16.2791C141.921 16.2479 142.584 16.2228 143.49 16.2939C143.623 15.4527 144.276 13.8801 144.804 13.2095C146.311 11.2974 147.706 10.8248 149.96 10.4829ZM151.369 22.1625C155.881 20.9581 155.107 12.5608 150.046 13.2705C147.418 13.7702 146.71 16.1491 146.946 18.5184C147.194 21.0177 148.763 22.4606 151.369 22.1625Z" fill="white"/>
<path d="M81.5919 10.4915C85.5939 10.0665 89.1807 12.9713 89.5966 16.9743C90.0126 20.9773 87.0997 24.5575 83.0956 24.9643C79.1044 25.3698 75.5383 22.4681 75.1238 18.478C74.7092 14.4879 77.6027 10.9152 81.5919 10.4915ZM83.1922 22.1494C87.6614 20.8869 86.8214 12.5479 81.7987 13.2682C79.1258 13.8034 78.5004 16.1551 78.7173 18.5223C78.9553 21.1162 80.5973 22.4835 83.1922 22.1494Z" fill="white"/>
<path d="M127.183 10.4755C131.177 10.1457 134.686 13.1078 135.03 17.1004C135.375 21.093 132.426 24.6125 128.435 24.9719C124.422 25.3332 120.88 22.3653 120.534 18.3517C120.187 14.3381 123.168 10.8071 127.183 10.4755ZM128.552 22.1613C133.119 20.9741 132.21 12.5138 127.24 13.2669C124.572 13.8082 123.912 16.1236 124.134 18.503C124.373 21.0782 125.955 22.4474 128.552 22.1613Z" fill="white"/>
<path d="M100.99 10.7241C102.111 10.7182 103.223 10.7199 104.342 10.6663C104.441 15.2553 104.209 20.3012 104.402 24.7791C103.331 24.709 102.014 24.654 100.945 24.755C100.914 21.8277 101.016 18.5978 100.919 15.7167C99.6695 17.7575 98.4997 19.86 97.2709 21.9122C96.7814 22.7295 96.1068 23.9645 95.578 24.7248C94.5499 24.7159 93.1699 24.6669 92.1705 24.7266C92.0763 21.2939 92.1685 17.8094 92.138 14.3718C92.1278 13.2297 92.2 11.823 92.1553 10.7244L95.5909 10.6938L95.5641 19.3256L95.6668 19.3638L95.7549 19.2921C95.8078 19.2214 95.9251 19.0048 95.9756 18.9169C97.0797 17.148 98.1207 15.2999 99.2068 13.5192C99.6 12.8748 100.515 11.2295 100.99 10.7241Z" fill="white"/>
<path d="M63.6267 10.7266C66.9376 10.714 73.0244 10.0346 73.683 14.589C73.8572 15.7269 73.5633 16.8867 72.8684 17.8043C71.7854 19.241 70.1633 19.6894 68.4725 19.923C67.9379 19.9732 67.5183 19.998 66.9816 20.0064C67.0291 21.5324 66.9932 23.2513 66.9983 24.7901C66.0227 24.6972 64.5498 24.6449 63.5854 24.7801C63.4755 21.6835 63.5986 18.4043 63.5505 15.2877C63.54 14.603 63.5162 11.2165 63.6267 10.7266ZM67.0054 17.388C67.9125 17.3299 69.022 17.3255 69.743 16.7084C70.444 15.8935 70.8233 14.9272 69.882 14.1055C68.9457 13.2886 68.0583 13.5363 66.9898 13.3041C67.0105 14.6653 67.0155 16.0267 67.0054 17.388Z" fill="white"/>
<path d="M113.84 10.4904C115.272 10.3413 117.239 10.7283 118.581 11.2542C118.468 12.1307 118.338 13.0047 118.19 13.8759C114.241 12.4844 110.025 13.3372 110.492 18.3892C110.89 22.6825 115.011 22.5592 118.129 21.6346L118.37 22.7539C118.464 23.2189 118.529 23.6943 118.599 24.1641C117.769 24.5776 117.079 24.7011 116.185 24.8452C111.874 25.54 107.642 23.6444 107.072 18.9454C106.828 16.9529 107.142 14.7522 108.396 13.1218C109.828 11.2598 111.648 10.7765 113.84 10.4904Z" fill="white"/>
<path d="M43.8698 10.49C44.964 10.2011 47.5789 10.8533 48.6783 11.271C48.6379 11.9238 48.3125 13.1903 48.1708 13.9147C43.9891 11.8775 39.2928 14.3391 40.7257 19.4026C41.6715 22.7444 45.5444 22.4476 48.2152 21.6387L48.3627 22.5106C48.4979 23.0812 48.5857 23.5842 48.682 24.1631C48.2145 24.3882 47.7512 24.5358 47.2488 24.6563C42.7495 25.7359 37.8396 24.1535 37.1447 19.0249C36.68 15.595 37.9749 12.2176 41.4444 10.9869C42.2966 10.6847 42.9813 10.6018 43.8698 10.49Z" fill="white"/>
<path d="M50.4509 10.7146C53.7967 10.8213 57.9712 10.7509 61.3499 10.7018L61.3601 13.478C60.0997 13.4184 58.8214 13.5181 57.559 13.4192C57.6079 15.9203 57.5614 18.5791 57.5614 21.0932L57.5533 24.7718C56.5292 24.7011 55.179 24.6743 54.1645 24.7355C54.0855 20.9975 54.1733 17.1876 54.1258 13.4314C52.9757 13.4739 51.4248 13.3776 50.3756 13.5043C50.3512 12.6264 50.3187 11.577 50.4509 10.7146Z" fill="white"/>
<path d="M100.054 6.03613C100.654 6.19495 101.849 6.36895 102.258 6.77851C102.825 7.3464 101.342 8.63061 100.94 8.9282C100.83 8.99867 100.716 9.06339 100.599 9.1221C99.3579 9.73118 97.9274 9.8261 96.6173 9.38617C95.0824 8.85735 94.683 8.04529 94.0363 6.72505C94.6746 6.48769 95.6905 6.24935 96.3729 6.06871C97.2139 6.24813 97.7813 9.13884 100.054 6.03613Z" fill="white"/>
<path d="M145.688 32.082C146.099 32.0488 146.458 32.0535 146.849 32.2017C147.333 32.3857 147.721 32.7573 147.928 33.2315C148.173 33.8118 148.18 34.4654 147.948 35.0511C147.644 35.803 147.272 35.9976 146.595 36.2861C146.118 36.3254 145.811 36.3505 145.366 36.1511C144.857 35.9227 144.463 35.4976 144.273 34.9732C143.8 33.6837 144.428 32.5383 145.688 32.082ZM146.539 35.6776C147.852 34.8783 147.755 32.6057 145.763 32.6457C144.353 33.5745 144.561 35.8725 146.539 35.6776Z" fill="white"/>
<path d="M89.3221 32.0885C89.7556 32.0454 90.0936 32.0366 90.5078 32.1956C90.9983 32.381 91.3922 32.7573 91.5997 33.239C92.1766 34.5631 91.5526 35.7319 90.2912 36.2807C87.4597 36.54 86.9132 33.0468 89.3221 32.0885ZM90.1763 35.6898C91.5254 34.9878 91.4617 32.5075 89.3868 32.6675C88.0671 33.6749 88.2766 35.8356 90.1763 35.6898Z" fill="white"/>
<path d="M92.8444 32.1559C95.3241 32.0884 96.6875 32.1068 95.6427 33.9878C95.3885 34.4454 96.5292 34.2078 96.0499 35.6162C95.456 36.4068 93.6844 36.2325 92.7861 36.2329C92.7905 34.8739 92.8099 33.5145 92.8444 32.1559ZM95.2502 35.4112C95.4465 35.1044 95.4366 35.2047 95.4533 34.8566C95.0604 34.2559 94.2312 34.4373 93.5797 34.3427C93.5607 34.7813 93.5485 35.22 93.5431 35.659C94.1556 35.6484 94.7122 35.7003 95.2502 35.4112ZM93.5695 33.9393C93.8594 33.9118 94.82 33.8373 95.0509 33.7817C95.2295 33.5525 95.3065 33.479 95.3058 33.1851C95.0075 32.6501 94.2105 32.7115 93.6434 32.6779C93.5109 33.0359 93.5529 33.5484 93.5695 33.9393Z" fill="white"/>
<path d="M158.849 32.4559C158.893 32.1867 159.052 32.1284 159.268 32.0539C159.872 32.34 159.372 34.7555 159.6 35.4135C159.707 35.7206 160.002 35.5705 160.14 35.8806C160.169 36.3454 160.286 37.1776 159.789 37.3461L159.62 37.2335C159.467 36.9457 159.468 36.541 159.444 36.2091C157.695 36.2806 155.76 36.2183 153.98 36.2467C153.972 35.483 153.869 32.6044 154.113 32.0237C154.423 32.0867 154.356 32.0315 154.577 32.2291C154.834 32.8457 154.698 34.8535 154.674 35.6355L156.428 35.6349C156.417 35.0552 156.221 32.261 156.816 32.0396C157.292 32.5705 157.126 34.8762 157.112 35.6366L158.858 35.6315C158.813 34.5532 158.832 33.5349 158.849 32.4559Z" fill="white"/>
<path d="M48.2274 32.08C48.7196 32.0464 49.1345 32.0233 49.5406 32.3596C50.0095 32.7484 50.6423 33.6545 50.1708 34.2359C49.7142 34.5539 48.0725 34.3949 47.443 34.3725C47.8389 35.5166 48.0325 35.7576 49.2586 35.6755C49.563 35.6169 49.8145 35.5081 50.0457 35.7335C49.9566 36.2359 49.2261 36.3467 48.7864 36.3308C48.0349 36.304 47.5528 36.0142 47.0501 35.4698C46.6223 33.965 46.6162 32.7647 48.2274 32.08ZM48.5383 33.8189C48.8339 33.8447 49.1518 33.9088 49.3895 33.7352C49.5596 33.4654 49.5325 33.5786 49.524 33.2776C49.2986 32.8037 48.9813 32.6118 48.465 32.565C48.1172 32.7603 47.7264 33.0189 47.6017 33.4227C47.6535 33.7172 47.5976 33.621 47.8217 33.8111C48.1074 33.8437 48.2515 33.8352 48.5383 33.8189Z" fill="white"/>
<path d="M128.679 32.0871C129.198 32.0484 129.5 32.0559 130.005 32.2481C131.008 32.6301 131.042 35.5213 130.618 36.2691C130.188 36.3495 130.115 36.0254 129.833 36.0529C128.798 36.1532 128.927 36.5474 127.883 36.0742C127.699 35.8464 127.509 35.4369 127.503 35.1498C127.482 33.9915 129.4 33.9488 130.137 33.8861C129.606 31.7005 128.636 33.3515 127.774 32.6881L127.814 32.5474C128.132 32.2474 128.257 32.2173 128.679 32.0871ZM129.096 35.7193C129.531 35.5759 130.119 35.3386 130.063 34.7657C129.777 34.4196 129.66 34.4973 129.23 34.5552C128.739 34.6129 128.187 34.7142 128.252 35.362C128.473 35.7044 128.682 35.7657 129.096 35.7193Z" fill="white"/>
<path d="M61.8488 32.0915C62.638 32.0308 62.8078 32.0742 63.5064 32.4003C64.0064 33.1003 64.2949 35.7318 63.7566 36.3159C63.4719 36.3325 63.4041 36.2152 63.1173 36.0315C62.3251 35.9108 62.1912 36.6989 61.0502 36.0511C59.5074 33.824 62.9254 34.3054 63.2881 33.4566C63.2732 33.3955 63.2535 33.3355 63.2288 33.2772C62.878 32.4498 61.7088 32.9637 60.9905 32.6633L61.0196 32.4406C61.2346 32.2596 61.5749 32.1769 61.8488 32.0915ZM62.1671 35.7613C62.5912 35.6152 63.3207 35.3216 63.2691 34.7505C63.0529 34.4508 62.881 34.501 62.5349 34.5532C61.9603 34.6074 61.5119 34.6267 61.399 35.3081C61.6125 35.6989 61.739 35.7064 62.1671 35.7613Z" fill="white"/>
<path d="M98.1681 32.0888C98.3366 32.0698 98.5058 32.0607 98.6752 32.062C100.928 32.0793 100.497 35.8766 100.094 36.2664C99.7451 36.2335 99.7583 36.1664 99.4295 35.9332C98.5556 36.323 98.3193 36.4386 97.4064 36.098C97.1997 35.8535 97.0454 35.4702 97.0251 35.1508C97.0102 34.9342 97.0844 34.7207 97.2305 34.56C97.7851 33.9556 98.9 33.9498 99.6546 33.9095C99.0319 31.5532 98.0129 33.4749 97.2586 32.6413C97.3742 32.3325 97.8841 32.1647 98.1681 32.0888ZM98.5017 35.7549C98.9596 35.6115 99.6325 35.3454 99.6139 34.7474C99.3698 34.4291 99.2403 34.4939 98.8559 34.5437C98.2986 34.6105 97.8478 34.6725 97.7403 35.3135C97.9539 35.6834 98.0861 35.7027 98.5017 35.7549Z" fill="white"/>
<path d="M111.321 32.0162C111.525 32.0437 111.555 32.0562 111.728 32.1695C111.958 32.5417 111.884 33.1081 111.877 33.5691C113.517 33.3901 115.34 34.1193 113.937 35.8908C113.158 36.3081 112.026 36.2325 111.141 36.2322C111.095 35.4434 111.031 32.5803 111.321 32.0162ZM111.869 35.6623C112.388 35.6474 112.909 35.665 113.392 35.4593C114.195 34.2044 112.832 34.0674 111.938 34.0071C111.849 34.5352 111.869 35.1234 111.869 35.6623Z" fill="white"/>
<path d="M56.2525 32.0179C56.4742 32.0454 56.5413 32.0424 56.6993 32.1932C56.9891 32.8722 56.8342 34.4908 56.783 35.2756C57.3481 34.5573 57.7938 33.7129 58.3176 32.9647C58.582 32.5874 58.9755 31.9254 59.4735 32.2203C59.784 32.7162 59.7867 35.9251 59.464 36.364C59.2599 36.3203 59.224 36.3037 59.0586 36.1759C58.7779 35.6261 58.9349 33.883 58.9481 33.2003C58.3291 33.8668 57.1525 36.4135 56.3247 36.1996C55.9623 35.7539 56.0247 32.5332 56.2525 32.0179Z" fill="white"/>
<path d="M69.9472 32.0305C70.2489 32.0783 70.2 32.0298 70.4228 32.2068C70.6787 32.7841 70.5672 34.3844 70.5848 35.117C71.1329 34.4939 72.3906 31.8049 73.1878 32.2617C73.575 32.9041 73.317 34.7285 73.3834 35.5166C73.4139 35.8766 73.3421 36.1498 73.0855 36.4136C72.9706 36.3488 72.8733 36.2505 72.7753 36.1614C72.4512 35.4631 72.657 33.8102 72.7499 33.0468C72.2004 33.7203 70.8346 36.4092 70.0224 36.1559C69.6824 35.7522 69.7282 32.4834 69.9472 32.0305Z" fill="white"/>
<path d="M149.28 32.017C149.503 32.0339 149.551 32.0336 149.725 32.1675C149.988 32.6529 149.872 34.4753 149.882 35.1407C150.497 34.4804 151.605 32.0275 152.499 32.0654C152.817 32.3715 152.719 35.7217 152.623 36.2844C152.27 36.3021 152.349 36.3505 152.099 36.1651C151.773 35.5705 151.981 33.7648 152.039 33.061C151.552 33.7 150.097 36.4858 149.308 36.1414C149.006 35.7088 149.063 32.4827 149.28 32.017Z" fill="white"/>
<path d="M78.8593 32.02C79.06 32.0502 79.0908 32.0593 79.2474 32.1858C79.5217 32.7309 79.3851 34.4895 79.4003 35.2268C79.821 34.6529 81.2817 31.8017 82.0139 32.1427C82.4027 32.8451 82.1651 34.9163 82.1806 35.7715C82.1867 36.1071 82.04 36.2153 81.8183 36.4231C81.1786 35.8129 81.4915 33.939 81.5549 33.079C80.9535 33.7987 80.5122 34.6519 79.9718 35.4149C79.7003 35.7987 79.3145 36.401 78.82 36.0804C78.5142 35.5498 78.5135 32.479 78.8593 32.02Z" fill="white"/>
<path d="M51.3838 32.0254C51.8322 32.1271 51.9048 32.1817 51.9539 32.6891C52.0478 33.6573 51.9746 34.6634 51.9404 35.6369L53.9797 35.6247C53.9556 34.5945 53.8926 33.4715 53.9909 32.4457C54.0166 32.1732 54.1089 32.144 54.3383 32.0745L54.5007 32.1783C54.7827 32.6661 54.6868 34.0949 54.679 34.7159C54.6783 34.9512 54.658 35.2352 54.8024 35.4223C55.1617 35.8878 55.7641 37.2142 54.8194 37.4105L54.7146 37.3213C54.5505 36.9915 54.5678 36.5779 54.556 36.2061C53.5672 36.2769 52.2695 36.2339 51.2343 36.2583C51.2305 35.4864 51.1587 32.6027 51.3838 32.0254Z" fill="white"/>
<path d="M117.244 32.0197C117.564 32.0654 117.483 32.0142 117.729 32.202C118.141 33.1183 117.484 34.4756 117.933 34.9563C118.501 34.7051 119.614 31.6767 120.455 32.1498C120.777 32.6844 120.653 35.4678 120.597 36.1888C120.375 36.3454 120.213 36.2949 120.026 36.1583C119.758 35.5573 119.916 33.8891 119.95 33.1719C119.36 33.8315 118.122 36.3952 117.309 36.1607C116.966 35.7542 117.017 32.4786 117.244 32.0197Z" fill="white"/>
<path d="M161.164 32.0173C161.295 32.036 161.531 32.0716 161.586 32.1794C161.891 32.7716 161.759 34.5645 161.768 35.1848C162.232 34.6085 163.624 31.745 164.383 32.2282C164.753 32.8597 164.51 34.7865 164.574 35.5716C164.603 35.9177 164.511 36.1678 164.267 36.4187C164.178 36.3641 164.057 36.2499 163.975 36.178C163.656 35.4692 163.848 33.8438 163.925 33.0756C163.352 33.7638 162.07 36.3051 161.258 36.1665C160.84 35.7533 160.937 32.5285 161.164 32.0173Z" fill="white"/>
<path d="M101.75 32.0142L102.038 32.0803C102.428 32.4854 102.297 33.2922 102.291 33.9027C103.039 33.8613 103.579 33.8759 104.328 33.9071C104.328 33.1349 104.288 32.7766 104.585 32.0552L104.738 32.0132C105.232 32.5373 105.216 35.7064 104.934 36.325C104.617 36.2864 104.674 36.3383 104.453 36.1498C104.242 35.6498 104.323 34.964 104.337 34.402C103.568 34.4318 103.048 34.4447 102.279 34.3939C102.287 34.785 102.37 36.1532 101.947 36.3278C101.337 35.924 101.441 32.6745 101.75 32.0142Z" fill="white"/>
<path d="M45.6719 32.1145C45.7417 32.1253 45.7783 32.1813 45.838 32.2382C45.9248 32.8047 46.096 36.1325 45.4529 36.2894L45.2834 36.1396C45.0577 35.6731 45.1346 33.3884 45.14 32.7165C44.7234 32.7182 43.6051 32.6576 43.2685 32.7453L43.1621 32.9284C43.1685 33.5915 43.2953 35.8857 42.8906 36.3145C42.1607 36.3047 42.4353 32.7867 42.4438 32.1328C43.5478 32.1484 44.5699 32.1623 45.6719 32.1145Z" fill="white"/>
<path d="M106.577 32.021C107.274 32.1576 107.082 33.2929 107.099 33.9051C107.806 33.8593 108.409 33.8773 109.114 33.8962C109.12 33.4288 109.069 32.3403 109.469 32.0579C110.037 32.5512 110.037 35.9013 109.632 36.3722C108.893 36.1579 109.117 35.0685 109.128 34.4054C108.381 34.4352 107.818 34.4352 107.07 34.4034C107.078 34.8149 107.155 36.1417 106.727 36.3274C106.147 35.8752 106.213 32.6376 106.577 32.021Z" fill="white"/>
<path d="M65.8382 32.1403C66.7515 32.1677 67.6654 32.1532 68.5772 32.0966C68.5403 32.8705 68.7942 36.1359 68.1552 36.3596C67.3762 35.8094 68.0965 33.5071 67.7315 32.7657L67.5213 32.7023C67.1952 32.7135 66.7959 32.6925 66.464 32.684C66.3691 33.4332 66.126 36.0325 65.2823 36.2938C64.9965 36.2199 65.0918 36.2711 64.8972 36.004C64.8623 35.542 65.4565 34.9932 65.546 34.5213C65.6986 33.7155 65.6545 32.9552 65.8382 32.1403Z" fill="white"/>
<path d="M166.56 34.1366C167.271 33.4196 167.823 32.1203 168.892 32.0891L168.961 32.1874C168.841 32.6603 167.703 33.683 167.305 34.0708C167.688 34.422 168.249 35.0668 168.617 35.4651C168.855 35.7278 169.061 35.8912 169.106 36.2034L168.943 36.2966C168.035 36.3888 167.354 34.7742 166.696 34.4061L166.588 34.4549C166.597 34.9393 166.712 36.0393 166.325 36.3315L166.135 36.2871C165.695 35.8335 165.735 32.4725 166.065 32.0149C166.175 32.0396 166.297 32.0918 166.403 32.1325C166.741 32.5891 166.581 33.5132 166.56 34.1366Z" fill="white"/>
<path d="M124.444 32.0953C126.329 31.9241 126.93 32.3221 126.004 34.1068C126.075 34.1895 126.144 34.2739 126.211 34.36C127.903 36.5583 123.357 36.9319 123.58 35.4712L123.755 35.3973L123.942 35.4773C124.617 35.778 126.085 35.9611 125.812 34.7733C125.24 34.1143 124.505 34.7055 124.16 34.1868C124.332 33.5956 126.122 34.1573 125.751 32.9444C125.137 32.4031 124.036 33.0675 123.587 32.6644L123.654 32.4729C123.835 32.2394 124.157 32.1794 124.444 32.0953Z" fill="white"/>
<path d="M75.3857 32.0929C77.2135 31.9464 77.8077 32.3359 76.9213 34.0966C77.3443 34.7183 77.9037 35.4885 76.9715 36.0247C76.2199 36.4573 75.0277 36.54 74.4501 35.7183C74.3962 35.642 74.4403 35.5817 74.4698 35.4895C74.7935 35.3946 74.7664 35.4556 75.1501 35.5868C75.6359 35.7878 76.2955 35.7593 76.6738 35.3579C76.781 35.0342 76.7613 35.1461 76.6982 34.8071C76.3057 34.2152 75.3077 34.6166 75.0708 34.1739C75.3491 33.7522 76.3864 33.9149 76.8098 33.2179C76.7084 32.2169 74.886 33.0925 74.4762 32.6515L74.5284 32.4362C74.6864 32.239 75.1216 32.1637 75.3857 32.0929Z" fill="white"/>
<path d="M133.305 32.0871C133.724 32.0475 134.587 32.0075 134.876 32.3505C134.909 32.598 134.932 32.5176 134.815 32.7099C134.441 32.8414 133.904 32.6326 133.491 32.6851C132.304 32.8363 132.136 34.8153 132.969 35.4587C133.432 35.816 134.045 35.6909 134.579 35.6139L134.794 35.6617L134.86 35.8075L134.782 36.0034C134.292 36.4593 133.377 36.4478 132.865 36.1315C131.061 35.0183 131.355 32.7644 133.305 32.0871Z" fill="white"/>
<path d="M39.8474 32.0894C40.3874 32.0643 41.1939 31.961 41.4678 32.5047L41.3749 32.6708C40.7885 32.8827 39.5274 32.5488 39.3135 33.0796C38.56 34.9498 39.241 35.8515 41.0091 35.6288C41.2786 35.6264 41.1813 35.5996 41.4102 35.7267L41.4047 35.9128C40.504 37.0369 37.4434 36.1681 38.5817 32.8474C39.0379 32.4172 39.2698 32.284 39.8474 32.0894Z" fill="white"/>
<path d="M135.484 32.1526C136.185 32.1421 138.503 31.9926 138.939 32.3401L138.937 32.5506L138.784 32.6923C138.423 32.8011 137.906 32.7109 137.519 32.6699L137.527 34.8431C137.541 35.359 137.694 36.1417 137.116 36.3112L136.951 36.1621C136.674 35.4787 136.792 33.5312 136.808 32.6848C136.427 32.7201 135.771 32.839 135.481 32.6333C135.381 32.3821 135.41 32.4512 135.484 32.1526Z" fill="white"/>
<path d="M115.224 32.0112C115.393 32.0367 115.487 32.0783 115.646 32.1394C115.9 32.4136 115.872 35.9353 115.63 36.3553C115.428 36.3316 115.2 36.2831 115.159 36.0573C115.021 35.2946 114.948 32.6133 115.224 32.0112Z" fill="white"/>
<path d="M149.492 30.1619C150.31 30.1852 150.042 30.7829 150.759 30.9159C151.316 31.0194 151.575 30.103 152.158 30.1939C152.269 30.3866 152.23 30.4093 152.222 30.6534C151.307 32.2946 149.267 31.4711 149.492 30.1619Z" fill="white"/>
<path d="M117.478 30.1786C118.307 30.192 118.026 30.844 118.819 30.9547C119.318 30.8465 119.625 30.1331 120.137 30.2034C120.238 30.4826 120.204 30.4219 120.139 30.7415C119.129 32.2394 117.202 31.431 117.478 30.1786Z" fill="white"/>
<path d="M95.7548 19.2921C95.7399 18.9117 95.7386 18.8301 95.9026 18.4885L95.9864 18.539L95.9755 18.9169C95.925 19.0048 95.8077 19.2214 95.7548 19.2921Z" fill="white"/>
<path d="M160.699 14.0587C160.548 13.4553 160.165 12.1086 160.202 11.5647C160.298 11.3726 160.468 11.2761 160.659 11.19C163.01 10.1295 167.504 9.94606 168.818 12.7213C169.169 13.4584 169.209 14.3059 168.928 15.0727C168.488 16.2756 167.525 16.8445 166.44 17.3483C168.234 17.9598 168.746 18.3101 169.492 20.1044V21.207C168.535 24.2483 166.528 25.0589 163.416 24.9633C161.984 24.9194 160.814 24.6877 159.53 24.0162C159.727 23.2968 159.836 22.3325 160.042 21.512C161.625 22.24 164.216 22.7688 165.696 21.5912C166.925 18.7904 163.755 18.8333 161.922 18.9505C161.97 18.2439 161.916 17.1238 161.903 16.3883C163.306 16.4176 164.062 16.5443 165.332 15.8761C167.272 12.4494 162.768 12.7339 160.699 14.0587Z" fill="white"/>
<path d="M15.7134 26.3896V34.166C15.7154 35.1353 15.7719 36.2996 15.7505 37.2412C11.6871 36.7951 9.31676 36.2296 5.73291 34.1592C5.77674 33.8567 5.75522 32.2886 5.75537 31.8984L5.75635 26.8994V14.1328C5.75485 11.6797 5.69856 9.03803 5.7876 6.60742C7.92765 5.1176 10.2036 3.7144 12.3628 2.24707C13.0436 1.7844 15.0456 0.552132 15.5356 0H15.6743L15.7134 26.3896ZM11.3413 15.9336C11.3401 16.4161 11.3082 18.6538 11.3735 18.9922L11.4399 19.0498C12.1649 18.547 12.8975 18.0551 13.6372 17.5742C13.6393 17.0647 13.7261 14.6978 13.5112 14.4756L11.3413 15.9336ZM13.5269 9.81738C12.8094 10.2915 12.0464 10.7791 11.3413 11.2646C11.3407 11.7653 11.2742 14.1344 11.4312 14.3955C12.1314 13.926 12.9329 13.3585 13.6382 12.917C13.6394 12.4599 13.71 10.0067 13.5269 9.81738ZM7.88135 8.72656C7.87752 9.17481 7.80634 11.6672 7.92627 11.8838C8.65797 11.3966 9.38499 10.9019 10.1069 10.4004C10.1076 9.99867 10.1713 7.46059 10.0435 7.27832L7.88135 8.72656ZM13.5044 5.16211C12.8619 5.58844 11.9937 6.20266 11.3413 6.57324C11.3381 7.03229 11.2799 9.42784 11.397 9.6875L11.4907 9.69824L13.6411 8.22656C13.6415 7.75341 13.6714 5.51254 13.5864 5.19922L13.5044 5.16211Z" fill="white"/>
<path d="M17.3649 7.38965C19.1297 8.64843 21.029 9.80856 22.8221 11.0299C23.5433 11.5209 24.8778 12.3249 25.4701 12.8936C25.5581 13.7895 25.5154 15.4586 25.5149 16.3888L25.5127 22.5402L25.5141 32.1933C25.5152 33.5795 25.5798 35.1601 25.5353 36.5099C23.5884 37.0692 19.422 37.397 17.3995 37.3411C17.2569 34.4211 17.3727 30.4484 17.373 27.4368L17.3649 7.38965Z" fill="white"/>
<path d="M1.06444 30.295C2.99247 31.8895 3.16554 32.5829 5.7329 34.1593C9.31683 36.2299 11.687 36.7956 15.7506 37.2417C16.0396 37.2902 17.1379 37.3753 17.3994 37.341C19.422 37.397 23.5884 37.0692 25.5352 36.5099C26.5365 36.4377 29.5439 35.4353 30.5498 35.0766C30.7829 35.4621 30.9485 35.9312 31.1136 36.3532C30.5091 36.6275 29.373 36.9427 28.7208 37.1363C25.642 38.0495 22.2658 38.6285 19.0463 38.7271C13.7705 38.8892 8.35622 37.7444 3.98469 34.6712C2.74959 33.8028 1.74023 32.8864 0.648326 31.8548C0.343262 31.5665 0.288574 31.5111 0.275269 31.1161C0.369574 30.8137 0.805177 30.5107 1.06444 30.295Z" fill="white"/>
<path d="M139.821 37.9999C139.814 37.2779 139.65 32.4732 139.94 32.0935C140.225 32.0677 140.56 32.4894 140.636 32.4508C141.171 32.1766 142.267 31.7861 142.77 32.4301C144.415 34.5396 143.038 36.6305 140.521 36.2321C140.521 36.7613 140.543 37.4871 140.509 37.9999H139.821ZM140.527 35.6328C141.097 35.6955 141.284 35.722 141.851 35.624C143.17 34.8379 142.922 32.5776 141.416 32.6406C141.056 32.8071 140.719 32.9206 140.597 33.3118C140.384 33.9976 140.542 34.865 140.527 35.6328Z" fill="white"/>
<path d="M83.5183 38C83.4824 37.1353 83.3773 32.682 83.6207 32.1356C83.9579 32.0458 84.0627 32.2553 84.2756 32.5044C85.3515 31.9407 85.979 31.8352 86.8522 32.8414C87.4668 35.0695 86.7491 36.6034 84.2268 36.2387C84.2227 36.7563 84.2403 37.501 84.2068 38H83.5183ZM84.2268 33.1481C84.2135 33.8759 84.0346 35.078 84.4213 35.5617C84.7644 35.7925 85.1386 35.6915 85.5396 35.618C86.9312 34.8576 86.5457 32.4885 85.0583 32.6478C84.8318 32.7793 84.423 33.0017 84.2268 33.1481Z" fill="white"/>
</g>
<defs>
<clipPath id="clip0_30_4335">
<rect width="169.492" height="40" fill="white"/>
</clipPath>
</defs>
</svg>
