<svg width="1312" height="213" viewBox="0 0 1312 213" fill="none" xmlns="http://www.w3.org/2000/svg">
<rect x="2.5274" y="4.05762" width="204.193" height="204.193" stroke="#362E35" stroke-width="2"/>
<path d="M198.818 3.3187C201.204 0.932831 205.071 0.932831 207.457 3.3187C209.843 5.70458 209.843 9.57193 207.457 11.9578L113.262 106.153L207.457 200.347C209.843 202.733 209.843 206.601 207.457 208.986C205.071 211.372 201.204 211.372 198.818 208.986L104.623 114.792L10.4285 208.986C8.04263 211.372 4.17528 211.372 1.78941 208.986C-0.596466 206.601 -0.596466 202.733 1.78941 200.347L95.9842 106.153L1.78941 11.9578C-0.596469 9.57193 -0.596469 5.70458 1.78941 3.3187C4.17528 0.932828 8.04263 0.932828 10.4285 3.3187L104.623 97.5135L198.818 3.3187Z" fill="white"/>
<rect x="275.923" y="4.05273" width="210.302" height="204.193" stroke="#362E35" stroke-width="2"/>
<path d="M475.006 106.151C475.006 54.2737 432.951 12.2188 381.074 12.2188C329.197 12.2188 287.142 54.2737 287.142 106.151C287.142 158.028 329.197 200.083 381.074 200.083V212.302C322.448 212.302 274.923 164.777 274.923 106.151C274.923 47.5255 322.448 0 381.074 0C439.7 0 487.225 47.5255 487.225 106.151C487.225 164.777 439.7 212.302 381.074 212.302V200.083C432.951 200.083 475.006 158.028 475.006 106.151Z" fill="white"/>
<rect x="555.429" y="4.46191" width="204.193" height="204.193" stroke="#362E35" stroke-width="2"/>
<path d="M649.493 7.40753C652.952 1.06858 662.102 1.06858 665.56 7.40753L665.723 7.71927L761.506 199.283C763.015 202.301 761.792 205.972 758.774 207.48C755.756 208.989 752.085 207.766 750.576 204.748L657.527 18.6479L564.478 204.748C562.969 207.766 559.298 208.989 556.28 207.48C553.262 205.972 552.039 202.301 553.548 199.283L649.331 7.71927L649.493 7.40753Z" fill="white"/>
<rect x="828.829" y="4.05273" width="210.302" height="204.193" stroke="#362E35" stroke-width="2"/>
<path d="M827.829 13.8463C827.829 5.65839 837.735 1.50858 843.623 7.22981L933.98 95.0266L1024.34 7.2298C1030.22 1.50853 1040.13 5.6584 1040.13 13.8463L1040.13 203.078C1040.13 206.483 1037.36 209.244 1033.93 209.244C1030.51 209.244 1027.73 206.483 1027.73 203.078L1027.73 21.1688L940.476 105.952L940.131 106.271C936.622 109.356 931.337 109.356 927.828 106.271L927.483 105.952L840.226 21.1689L840.226 203.078C840.226 206.483 837.451 209.244 834.027 209.244C830.604 209.244 827.829 206.483 827.829 203.078L827.829 13.8463Z" fill="white"/>
<rect x="1106.81" y="4.05273" width="204.193" height="204.193" stroke="#362E35" stroke-width="2"/>
<path d="M1172.8 9.58103C1193.26 1.9317 1215.62 0.97842 1236.66 6.85894C1255.61 12.1576 1272.61 22.7576 1285.69 37.3493C1288.07 40.0106 1287.58 44.0945 1284.77 46.3076L1284.5 46.5075C1281.8 48.4242 1278.09 47.9725 1275.73 45.623L1275.5 45.3829C1264.5 33.3225 1250.4 24.451 1234.7 19.7624L1233.18 19.3224C1214.78 14.1799 1195.23 15.0136 1177.33 21.7029L1175.66 22.3458C1158.49 29.158 1143.81 41.0895 1133.62 56.5412L1132.66 58.0447C1122.8 73.6708 1117.97 91.9638 1118.85 110.448C1119.76 129.527 1126.71 147.825 1138.69 162.701C1150.68 177.578 1167.07 188.264 1185.52 193.219C1203.39 198.018 1222.29 197.199 1239.66 190.896L1241.34 190.27C1257.14 184.176 1270.87 173.77 1280.99 160.295C1283.14 157.438 1287.12 156.556 1290.13 158.492C1293.13 160.428 1294.01 164.446 1291.89 167.322C1280.27 183.093 1264.36 195.264 1245.99 202.344C1225.61 210.201 1203.26 211.382 1182.16 205.716C1161.73 200.227 1143.49 188.588 1129.91 172.399L1128.61 170.818C1115.34 154.338 1107.47 134.187 1106.04 113.107L1105.93 111.064C1104.92 89.927 1110.44 69.0091 1121.71 51.1403L1122.82 49.4205C1134.46 31.7508 1151.25 18.1064 1170.89 10.3164L1172.8 9.58103Z" fill="white"/>
</svg>
