<svg width="199" height="33" viewBox="0 0 199 33" fill="none" xmlns="http://www.w3.org/2000/svg">
<rect x="1.31099" y="1.37713" width="29.4791" height="29.4791" stroke="#362E35" stroke-width="1.6"/>
<path d="M30.2483 0.616631C30.6079 0.257012 31.1909 0.257012 31.5505 0.616631C31.9101 0.97625 31.9101 1.55917 31.5505 1.91879L17.3526 16.1166L31.5505 30.3145C31.9101 30.6741 31.9101 31.257 31.5505 31.6166C31.1909 31.9762 30.6079 31.9762 30.2483 31.6166L16.0505 17.4188L1.85263 31.6166C1.49302 31.9762 0.910096 31.9762 0.550476 31.6166C0.190857 31.257 0.190857 30.6741 0.550476 30.3145L14.7483 16.1166L0.550476 1.91879C0.190857 1.55917 0.190857 0.97625 0.550476 0.616631C0.910096 0.257011 1.49302 0.257011 1.85263 0.616631L16.0505 14.8145L30.2483 0.616631Z" fill="white"/>
<rect x="42.5195" y="1.37706" width="30.4" height="29.4791" stroke="#362E35" stroke-width="1.6"/>
<path d="M71.8778 16.1166C71.8778 8.29723 65.5389 1.95836 57.7195 1.95836C49.9001 1.95836 43.5612 8.29723 43.5612 16.1166C43.5612 23.936 49.9001 30.2749 57.7195 30.2749V32.1166C48.8829 32.1166 41.7195 24.9532 41.7195 16.1166C41.7195 7.28008 48.8829 0.116631 57.7195 0.116631C66.556 0.116631 73.7195 7.28008 73.7195 16.1166C73.7195 24.9532 66.556 32.1166 57.7195 32.1166V30.2749C65.5389 30.2749 71.8778 23.936 71.8778 16.1166Z" fill="white"/>
<rect x="84.6489" y="1.43781" width="29.4791" height="29.4791" stroke="#362E35" stroke-width="1.6"/>
<path d="M98.1778 1.2329C98.6991 0.277439 100.078 0.277439 100.6 1.2329L100.624 1.27989L115.061 30.154C115.289 30.6089 115.104 31.1622 114.65 31.3896C114.195 31.617 113.641 31.4326 113.414 30.9777L99.3887 2.92714L85.3635 30.9777C85.1361 31.4326 84.5828 31.617 84.1279 31.3896C83.673 31.1622 83.4886 30.6089 83.7161 30.154L98.1533 1.27989L98.1778 1.2329Z" fill="white"/>
<rect x="125.858" y="1.37706" width="30.4" height="29.4791" stroke="#362E35" stroke-width="1.6"/>
<path d="M125.058 2.20418C125.058 0.970031 126.551 0.344535 127.439 1.20689L141.058 14.4404L154.677 1.20689C155.565 0.344528 157.058 0.970032 157.058 2.20418L157.058 30.7268C157.058 31.2401 156.64 31.6562 156.124 31.6562C155.608 31.6562 155.189 31.2401 155.189 30.7268L155.189 3.3079L142.037 16.0871L141.985 16.1352C141.456 16.6002 140.66 16.6002 140.131 16.1352L140.079 16.0871L126.927 3.3079L126.927 30.7268C126.927 31.2401 126.508 31.6562 125.992 31.6562C125.476 31.6562 125.058 31.2401 125.058 30.7268L125.058 2.20418Z" fill="white"/>
<rect x="167.757" y="1.37706" width="29.4791" height="29.4791" stroke="#362E35" stroke-width="1.6"/>
<path d="M177.055 1.56113C180.139 0.408154 183.51 0.264467 186.681 1.15083C189.538 1.94948 192.1 3.54721 194.071 5.7466C194.43 6.14774 194.355 6.76329 193.932 7.09687L193.892 7.127C193.485 7.41591 192.925 7.34782 192.57 6.99368L192.536 6.95748C190.877 5.13964 188.752 3.80246 186.386 3.09575L186.156 3.02943C183.383 2.2543 180.435 2.37997 177.738 3.38824L177.487 3.48514C174.898 4.51193 172.685 6.31035 171.15 8.63936L171.004 8.86598C169.518 11.2213 168.791 13.9786 168.924 16.7646C169.061 19.6405 170.108 22.3984 171.914 24.6407C173.72 26.883 176.192 28.4937 178.973 29.2405C181.666 29.964 184.515 29.8405 187.133 28.8905L187.386 28.7961C189.768 27.8776 191.837 26.3091 193.362 24.2781C193.686 23.8474 194.287 23.7145 194.74 24.0063C195.192 24.2981 195.325 24.9037 195.006 25.3372C193.253 27.7143 190.855 29.5488 188.087 30.616C185.015 31.8004 181.646 31.9783 178.466 31.1243C175.386 30.297 172.637 28.5425 170.591 26.1025L170.395 25.8642C168.394 23.3802 167.208 20.3428 166.993 17.1654L166.975 16.8574C166.823 13.6716 167.655 10.5186 169.354 7.82529L169.522 7.56607C171.277 4.90275 173.807 2.84614 176.768 1.67196L177.055 1.56113Z" fill="white"/>
</svg>
