<svg width="120" height="129" viewBox="0 0 120 129" fill="none" xmlns="http://www.w3.org/2000/svg">
<g filter="url(#filter0_d_87_1263)">
<path d="M60 28C75.464 28 88 40.536 88 56C88 68.8096 79.3977 79.6081 67.6551 82.9383C67.1341 83.0861 66.6831 83.422 66.4124 83.891L61.732 91.9994C60.9623 93.3329 59.0376 93.333 58.2678 91.9995L53.5867 83.8909C53.3159 83.422 52.865 83.0861 52.344 82.9383C40.6019 79.6078 32 68.8093 32 56C32 40.536 44.536 28 60 28Z" fill="#F7C588"/>
<rect x="39.2517" y="53.3015" width="6.39568" height="6.39568" stroke="black" stroke-opacity="0.11" stroke-width="0.402878"/>
<path d="M45.5554 53.1093C45.6341 53.0306 45.7616 53.0306 45.8403 53.1093C45.9189 53.188 45.9189 53.3155 45.8403 53.3941L42.7345 56.4999L45.8403 59.6057C45.9189 59.6844 45.9189 59.8119 45.8403 59.8905C45.7616 59.9692 45.6341 59.9692 45.5554 59.8905L42.4496 56.7848L39.3438 59.8905C39.2652 59.9692 39.1377 59.9692 39.059 59.8905C38.9803 59.8119 38.9803 59.6844 39.059 59.6057L42.1648 56.4999L39.059 53.3941C38.9803 53.3155 38.9803 53.188 39.059 53.1093C39.1377 53.0306 39.2652 53.0306 39.3438 53.1093L42.4496 56.2151L45.5554 53.1093Z" fill="#0C0B0A"/>
<rect x="48.2661" y="53.302" width="6.59712" height="6.39568" stroke="black" stroke-opacity="0.11" stroke-width="0.402878"/>
<path d="M54.6618 56.5C54.6618 54.7895 53.2752 53.4029 51.5647 53.4029C49.8542 53.4029 48.4676 54.7895 48.4676 56.5C48.4676 58.2105 49.8542 59.5971 51.5647 59.5971V60C49.6317 60 48.0647 58.433 48.0647 56.5C48.0647 54.567 49.6317 53 51.5647 53C53.4977 53 55.0647 54.567 55.0647 56.5C55.0647 58.433 53.4977 60 51.5647 60V59.5971C53.2752 59.5971 54.6618 58.2105 54.6618 56.5Z" fill="#0C0B0A"/>
<rect x="57.482" y="53.3157" width="6.39568" height="6.39568" stroke="black" stroke-opacity="0.11" stroke-width="0.402878"/>
<path d="M60.415 53.2442C60.5291 53.0352 60.8308 53.0352 60.9448 53.2442L60.9502 53.2544L64.1083 59.5706C64.1581 59.6702 64.1177 59.7912 64.0182 59.8409C63.9187 59.8907 63.7977 59.8503 63.7479 59.7508L60.6799 53.6148L57.6119 59.7508C57.5622 59.8503 57.4411 59.8907 57.3416 59.8409C57.2421 59.7912 57.2018 59.6702 57.2515 59.5706L60.4097 53.2544L60.415 53.2442Z" fill="#0C0B0A"/>
<rect x="66.4964" y="53.302" width="6.59712" height="6.39568" stroke="black" stroke-opacity="0.11" stroke-width="0.402878"/>
<path d="M66.2949 53.4568C66.2949 53.1868 66.6216 53.05 66.8157 53.2386L69.7949 56.1334L72.7741 53.2386C72.9683 53.05 73.2949 53.1868 73.2949 53.4568L73.2949 59.6961C73.2949 59.8084 73.2034 59.8994 73.0905 59.8994C72.9777 59.8994 72.8862 59.8084 72.8862 59.6961L72.8862 53.6982L70.0091 56.4937L69.9978 56.5042C69.8821 56.6059 69.7078 56.6059 69.5921 56.5042L69.5807 56.4937L66.7037 53.6982L66.7037 59.6961C66.7037 59.8084 66.6122 59.8994 66.4993 59.8994C66.3864 59.8994 66.2949 59.8084 66.2949 59.6961L66.2949 53.4568Z" fill="#0C0B0A"/>
<rect x="75.6619" y="53.302" width="6.39568" height="6.39568" stroke="black" stroke-opacity="0.11" stroke-width="0.402878"/>
<path d="M77.6696 53.3158C78.3442 53.0636 79.0815 53.0322 79.7751 53.2261C80.4001 53.4008 80.9605 53.7503 81.3916 54.2314C81.4702 54.3192 81.4539 54.4538 81.3614 54.5268L81.3526 54.5334C81.2636 54.5966 81.141 54.5817 81.0634 54.5042L81.0559 54.4963C80.693 54.0986 80.2282 53.8061 79.7105 53.6515L79.6603 53.637C79.0537 53.4675 78.4089 53.495 77.819 53.7155L77.7639 53.7367C77.1977 53.9613 76.7136 54.3547 76.3778 54.8642L76.3459 54.9138C76.0208 55.429 75.8617 56.0321 75.8907 56.6416C75.9208 57.2707 76.1499 57.874 76.5449 58.3645C76.94 58.855 77.4807 59.2073 78.0889 59.3707C78.6782 59.529 79.3013 59.5019 79.874 59.2941L79.9293 59.2735C80.4504 59.0726 80.903 58.7295 81.2367 58.2852C81.3075 58.191 81.4389 58.1619 81.538 58.2257C81.637 58.2895 81.666 58.422 81.5961 58.5169C81.2128 59.0368 80.6883 59.4381 80.0828 59.6716C79.4107 59.9307 78.6738 59.9696 77.9782 59.7828C77.3044 59.6018 76.7031 59.218 76.2555 58.6843L76.2126 58.6321C75.775 58.0888 75.5155 57.4243 75.4684 56.7293L75.4646 56.6619C75.4313 55.965 75.6133 55.2753 75.985 54.6861L76.0216 54.6294C76.4055 54.0468 76.9591 53.5969 77.6066 53.3401L77.6696 53.3158Z" fill="#0C0B0A"/>
</g>
<defs>
<filter id="filter0_d_87_1263" x="0" y="0" width="120" height="129" filterUnits="userSpaceOnUse" color-interpolation-filters="sRGB">
<feFlood flood-opacity="0" result="BackgroundImageFix"/>
<feColorMatrix in="SourceAlpha" type="matrix" values="0 0 0 0 0 0 0 0 0 0 0 0 0 0 0 0 0 0 127 0" result="hardAlpha"/>
<feOffset dy="4"/>
<feGaussianBlur stdDeviation="16"/>
<feComposite in2="hardAlpha" operator="out"/>
<feColorMatrix type="matrix" values="0 0 0 0 0.968627 0 0 0 0 0.772549 0 0 0 0 0.533333 0 0 0 0.6 0"/>
<feBlend mode="normal" in2="BackgroundImageFix" result="effect1_dropShadow_87_1263"/>
<feBlend mode="normal" in="SourceGraphic" in2="effect1_dropShadow_87_1263" result="shape"/>
</filter>
</defs>
</svg>
