<svg width="56" height="65" viewBox="0 0 56 65" fill="none" xmlns="http://www.w3.org/2000/svg">
  <path
    d="M28 0C43.464 0 56 12.536 56 28C56 40.8096 47.3977 51.6081 35.6551 54.9383C35.1341 55.0861 34.6831 55.422 34.4124 55.891L29.732 63.9994C28.9623 65.3329 27.0376 65.333 26.2678 63.9995L21.5867 55.8909C21.3159 55.422 20.865 55.0861 20.344 54.9383C8.60189 51.6078 0 40.8093 0 28C0 12.536 12.536 0 28 0Z"
    fill="#F7C588" />
  <rect x="7.25173" y="25.3015" width="6.39568" height="6.39568" stroke="black"
    stroke-opacity="0.11" stroke-width="0.402878" />
  <path
    d="M13.5554 25.1093C13.6341 25.0306 13.7616 25.0306 13.8403 25.1093C13.9189 25.188 13.9189 25.3155 13.8403 25.3941L10.7345 28.4999L13.8403 31.6057C13.9189 31.6844 13.9189 31.8119 13.8403 31.8905C13.7616 31.9692 13.6341 31.9692 13.5554 31.8905L10.4496 28.7848L7.34385 31.8905C7.26518 31.9692 7.13767 31.9692 7.059 31.8905C6.98033 31.8119 6.98033 31.6844 7.059 31.6057L10.1648 28.4999L7.059 25.3941C6.98033 25.3155 6.98033 25.188 7.059 25.1093C7.13767 25.0306 7.26518 25.0306 7.34385 25.1093L10.4496 28.2151L13.5554 25.1093Z"
    fill="#0C0B0A" />
  <rect x="16.2661" y="25.302" width="6.59712" height="6.39568" stroke="black" stroke-opacity="0.11"
    stroke-width="0.402878" />
  <path
    d="M22.6618 28.5C22.6618 26.7895 21.2752 25.4029 19.5647 25.4029C17.8542 25.4029 16.4676 26.7895 16.4676 28.5C16.4676 30.2105 17.8542 31.5971 19.5647 31.5971V32C17.6317 32 16.0647 30.433 16.0647 28.5C16.0647 26.567 17.6317 25 19.5647 25C21.4977 25 23.0647 26.567 23.0647 28.5C23.0647 30.433 21.4977 32 19.5647 32V31.5971C21.2752 31.5971 22.6618 30.2105 22.6618 28.5Z"
    fill="#0C0B0A" />
  <rect x="25.482" y="25.3157" width="6.39568" height="6.39568" stroke="black" stroke-opacity="0.11"
    stroke-width="0.402878" />
  <path
    d="M28.415 25.2442C28.5291 25.0352 28.8308 25.0352 28.9448 25.2442L28.9502 25.2544L32.1083 31.5706C32.1581 31.6702 32.1177 31.7912 32.0182 31.8409C31.9187 31.8907 31.7977 31.8503 31.7479 31.7508L28.6799 25.6148L25.6119 31.7508C25.5622 31.8503 25.4411 31.8907 25.3416 31.8409C25.2421 31.7912 25.2018 31.6702 25.2515 31.5706L28.4097 25.2544L28.415 25.2442Z"
    fill="#0C0B0A" />
  <rect x="34.4964" y="25.302" width="6.59712" height="6.39568" stroke="black" stroke-opacity="0.11"
    stroke-width="0.402878" />
  <path
    d="M34.2949 25.4568C34.2949 25.1868 34.6216 25.05 34.8157 25.2386L37.7949 28.1334L40.7741 25.2386C40.9683 25.05 41.2949 25.1868 41.2949 25.4568L41.2949 31.6961C41.2949 31.8084 41.2034 31.8994 41.0905 31.8994C40.9777 31.8994 40.8862 31.8084 40.8862 31.6961L40.8862 25.6982L38.0091 28.4937L37.9978 28.5042C37.8821 28.6059 37.7078 28.6059 37.5921 28.5042L37.5807 28.4937L34.7037 25.6982L34.7037 31.6961C34.7037 31.8084 34.6122 31.8994 34.4993 31.8994C34.3864 31.8994 34.2949 31.8084 34.2949 31.6961L34.2949 25.4568Z"
    fill="#0C0B0A" />
  <rect x="43.6619" y="25.302" width="6.39568" height="6.39568" stroke="black" stroke-opacity="0.11"
    stroke-width="0.402878" />
  <path
    d="M45.6696 25.3158C46.3442 25.0636 47.0815 25.0322 47.7751 25.2261C48.4001 25.4008 48.9605 25.7503 49.3916 26.2314C49.4702 26.3192 49.4539 26.4538 49.3614 26.5268L49.3526 26.5334C49.2636 26.5966 49.141 26.5817 49.0634 26.5042L49.0559 26.4963C48.693 26.0986 48.2282 25.8061 47.7105 25.6515L47.6603 25.637C47.0537 25.4675 46.4089 25.495 45.819 25.7155L45.7639 25.7367C45.1977 25.9613 44.7136 26.3547 44.3778 26.8642L44.3459 26.9138C44.0208 27.429 43.8617 28.0321 43.8907 28.6416C43.9208 29.2707 44.1499 29.874 44.5449 30.3645C44.94 30.855 45.4807 31.2073 46.0889 31.3707C46.6782 31.529 47.3013 31.5019 47.874 31.2941L47.9293 31.2735C48.4504 31.0726 48.903 30.7295 49.2367 30.2852C49.3075 30.191 49.4389 30.1619 49.538 30.2257C49.637 30.2895 49.666 30.422 49.5961 30.5169C49.2128 31.0368 48.6883 31.4381 48.0828 31.6716C47.4107 31.9307 46.6738 31.9696 45.9782 31.7828C45.3044 31.6018 44.7031 31.218 44.2555 30.6843L44.2126 30.6321C43.775 30.0888 43.5155 29.4243 43.4684 28.7293L43.4646 28.6619C43.4313 27.965 43.6133 27.2753 43.985 26.6861L44.0216 26.6294C44.4055 26.0468 44.9591 25.5969 45.6066 25.3401L45.6696 25.3158Z"
    fill="#0C0B0A" />
</svg>