<svg width="120" height="129" viewBox="0 0 120 129" fill="none" xmlns="http://www.w3.org/2000/svg">
<g filter="url(#filter0_d_91_1292)">
<path d="M60 28C75.464 28 88 40.536 88 56C88 68.8096 79.3977 79.6081 67.6551 82.9383C67.1341 83.0861 66.6831 83.422 66.4124 83.891L61.732 91.9994C60.9623 93.3329 59.0376 93.333 58.2678 91.9995L53.5867 83.8909C53.3159 83.422 52.865 83.0861 52.344 82.9383C40.6019 79.6078 32 68.8093 32 56C32 40.536 44.536 28 60 28Z" fill="white"/>
<path d="M60.438 60.3896V68.166C60.44 69.1353 60.4965 70.2996 60.4751 71.2412C56.4117 70.7951 54.0414 70.2296 50.4575 68.1592C50.5013 67.8567 50.4798 66.2886 50.48 65.8984L50.481 60.8994V48.1328C50.4795 45.6797 50.4232 43.038 50.5122 40.6074C52.6523 39.1176 54.9282 37.7144 57.0874 36.2471C57.7682 35.7844 59.7703 34.5521 60.2603 34H60.3989L60.438 60.3896ZM56.0659 49.9336C56.0647 50.4161 56.0328 52.6538 56.0981 52.9922L56.1646 53.0498C56.8895 52.547 57.6221 52.0551 58.3618 51.5742C58.3639 51.0647 58.4507 48.6978 58.2358 48.4756L56.0659 49.9336ZM58.2515 43.8174C57.534 44.2915 56.771 44.7791 56.0659 45.2646C56.0653 45.7653 55.9988 48.1344 56.1558 48.3955C56.856 47.926 57.6575 47.3585 58.3628 46.917C58.364 46.4599 58.4346 44.0067 58.2515 43.8174ZM52.606 42.7266C52.6021 43.1748 52.531 45.6672 52.6509 45.8838C53.3826 45.3966 54.1096 44.9019 54.8315 44.4004C54.8322 43.9987 54.8959 41.4606 54.7681 41.2783L52.606 42.7266ZM58.229 39.1621C57.5865 39.5884 56.7183 40.2027 56.0659 40.5732C56.0627 41.0323 56.0045 43.4278 56.1216 43.6875L56.2153 43.6982L58.3657 42.2266C58.3661 41.7534 58.396 39.5125 58.311 39.1992L58.229 39.1621Z" fill="#1A1A1A"/>
<path d="M62.0897 41.3896C63.8545 42.6484 65.7538 43.8086 67.547 45.0299C68.2681 45.5209 69.6026 46.3249 70.195 46.8936C70.283 47.7895 70.2402 49.4586 70.2397 50.3888L70.2375 56.5402L70.239 66.1933C70.24 67.5795 70.3047 69.1601 70.2601 70.5099C68.3133 71.0692 64.1469 71.397 62.1244 71.3411C61.9818 68.4211 62.0976 64.4484 62.0978 61.4368L62.0897 41.3896Z" fill="#1A1A1A"/>
<path d="M45.7892 64.2949C47.7172 65.8893 47.8903 66.5828 50.4576 68.1592C54.0416 70.2297 56.4117 70.7955 60.4753 71.2416C60.7643 71.2901 61.8627 71.3752 62.1242 71.3409C64.1467 71.3969 68.3131 71.0691 70.2599 70.5097C71.2612 70.4375 74.2687 69.4352 75.2745 69.0765C75.5076 69.4619 75.6732 69.9311 75.8383 70.3531C75.2339 70.6274 74.0978 70.9426 73.4456 71.1362C70.3667 72.0494 66.9905 72.6284 63.771 72.727C58.4952 72.8891 53.0809 71.7443 48.7094 68.6711C47.4743 67.8027 46.465 66.8863 45.3731 65.8546C45.068 65.5664 45.0133 65.511 45 65.116C45.0943 64.8136 45.5299 64.5105 45.7892 64.2949Z" fill="#1A1A1A"/>
</g>
<defs>
<filter id="filter0_d_91_1292" x="0" y="0" width="120" height="129" filterUnits="userSpaceOnUse" color-interpolation-filters="sRGB">
<feFlood flood-opacity="0" result="BackgroundImageFix"/>
<feColorMatrix in="SourceAlpha" type="matrix" values="0 0 0 0 0 0 0 0 0 0 0 0 0 0 0 0 0 0 127 0" result="hardAlpha"/>
<feOffset dy="4"/>
<feGaussianBlur stdDeviation="16"/>
<feComposite in2="hardAlpha" operator="out"/>
<feColorMatrix type="matrix" values="0 0 0 0 1 0 0 0 0 1 0 0 0 0 1 0 0 0 0.6 0"/>
<feBlend mode="normal" in2="BackgroundImageFix" result="effect1_dropShadow_91_1292"/>
<feBlend mode="normal" in="SourceGraphic" in2="effect1_dropShadow_91_1292" result="shape"/>
</filter>
</defs>
</svg>
