<svg width="8" height="24" viewBox="0 0 8 24" fill="none" xmlns="http://www.w3.org/2000/svg">
  <path
    d="M1.69068 14.3914C0.960134 13.742 -9.89147e-07 13.0726 -5.24551e-07 11.9997C-5.99562e-08 10.9268 0.960134 10.2573 1.69068 9.60795L4.7779 6.86376C5.96402 5.80943 6.55708 5.28227 6.98262 4.64796C7.35975 4.08581 7.63903 3.4639 7.80863 2.80856C8.00001 2.06909 8.00001 1.58697 8.00001 -3.49691e-07L8.00001 24C8.00001 22.413 8.00001 21.9302 7.80863 21.1908C7.63903 20.5354 7.35975 19.9135 6.98262 19.3514C6.55708 18.7171 5.96402 18.1899 4.7779 17.1356L1.69068 14.3914Z"
    fill="white" fill-opacity="0.2" />
</svg>