<svg width="64" height="64" viewBox="0 0 64 64" fill="none" xmlns="http://www.w3.org/2000/svg">
<path d="M24.8744 39.1229L39.1203 24.877" stroke="#F7C588" stroke-linecap="round" stroke-linejoin="round"/>
<path d="M39.7632 38.6243C40.0684 38.9394 40.0631 39.4415 39.7512 39.75C39.4394 40.0585 38.9373 40.0585 38.6254 39.75C38.3136 39.4415 38.3082 38.9394 38.6134 38.6243C38.7642 38.4686 38.9716 38.3807 39.1883 38.3807C39.405 38.3807 39.6125 38.4686 39.7632 38.6243" stroke="#F7C588" stroke-linecap="round" stroke-linejoin="round"/>
<path d="M25.3839 24.2263C25.6891 24.5414 25.6837 25.0435 25.3719 25.352C25.06 25.6606 24.5579 25.6606 24.2461 25.352C23.9342 25.0435 23.9289 24.5414 24.2341 24.2263C24.3848 24.0707 24.5923 23.9828 24.809 23.9828C25.0257 23.9828 25.2331 24.0707 25.3839 24.2263" stroke="#F7C588" stroke-linecap="round" stroke-linejoin="round"/>
<rect x="7.98999" y="7.99023" width="48.02" height="48.02" rx="5" stroke="#F7C588" stroke-linecap="round" stroke-linejoin="round"/>
</svg>
