<svg width="64" height="64" viewBox="0 0 64 64" fill="none" xmlns="http://www.w3.org/2000/svg">
<path d="M17.3273 9.3252L21.3289 13.3269L17.3273 17.3285" stroke="#F7C588" stroke-linecap="round" stroke-linejoin="round"/>
<path d="M21.3289 13.3267H15.9933C13.8708 13.3265 11.8352 14.1695 10.3343 15.6703C8.83341 17.171 7.99012 19.2065 7.98999 21.329V21.33" stroke="#F7C588" stroke-linecap="round" stroke-linejoin="round"/>
<path d="M34.7878 13.0146V25.3308C34.7878 27.5408 36.5794 29.3324 38.7895 29.3324H52.1284C54.3385 29.3324 56.1301 27.5408 56.1301 25.3308V13.2067" stroke="#F7C588" stroke-linecap="round" stroke-linejoin="round"/>
<path d="M58.6778 15.2448L47.0055 5.90687C46.0311 5.1274 44.6467 5.1274 43.6723 5.90687L32 15.2448" stroke="#F7C588" stroke-linecap="round" stroke-linejoin="round"/>
<path d="M8.10999 39.6924V52.0085C8.10999 54.2186 9.90159 56.0102 12.1117 56.0102H25.4505C27.6606 56.0102 29.4522 54.2186 29.4522 52.0085V39.8845" stroke="#F7C588" stroke-linecap="round" stroke-linejoin="round"/>
<path d="M32 41.9225L20.3277 32.5846C19.3534 31.8051 17.9689 31.8051 16.9946 32.5846L5.32227 41.9225" stroke="#F7C588" stroke-linecap="round" stroke-linejoin="round"/>
<path d="M46.6728 54.6762L42.6711 50.6745L46.6728 46.6729" stroke="#F7C588" stroke-linecap="round" stroke-linejoin="round"/>
<path d="M42.6711 50.6747H48.0067C50.1292 50.6749 52.1648 49.8318 53.6657 48.3311C55.1666 46.8304 56.0099 44.7949 56.01 42.6724V42.6714" stroke="#F7C588" stroke-linecap="round" stroke-linejoin="round"/>
</svg>
